<mxfile host="Electron" modified="2025-03-09T19:19:52.609Z" agent="Mozilla/5.0 (Windows NT 10.0; Win64; x64) AppleWebKit/537.36 (KHTML, like Gecko) draw.io/22.0.2 Chrome/114.0.5735.289 Electron/25.8.4 Safari/537.36" etag="2vOiqQCkb6R48yCsV6S0" version="22.0.2" type="device">
  <diagram name="Страница — 1" id="gd_pUO4zHEDSnUCbEbD9">
    <mxGraphModel dx="1299" dy="828" grid="1" gridSize="10" guides="1" tooltips="1" connect="1" arrows="1" fold="1" page="1" pageScale="1" pageWidth="827" pageHeight="1169" math="0" shadow="0">
      <root>
        <mxCell id="0" />
        <mxCell id="1" parent="0" />
        <mxCell id="6IuLHE-G2bQOH5MbrsdE-1" value="" style="endArrow=none;dashed=1;html=1;rounded=0;" parent="1" source="6IuLHE-G2bQOH5MbrsdE-3" edge="1">
          <mxGeometry width="50" height="50" relative="1" as="geometry">
            <mxPoint x="135" y="600" as="sourcePoint" />
            <mxPoint x="135" y="130" as="targetPoint" />
          </mxGeometry>
        </mxCell>
        <mxCell id="6IuLHE-G2bQOH5MbrsdE-2" value="" style="endArrow=none;dashed=1;html=1;rounded=0;" parent="1" target="6IuLHE-G2bQOH5MbrsdE-3" edge="1">
          <mxGeometry width="50" height="50" relative="1" as="geometry">
            <mxPoint x="135" y="1070" as="sourcePoint" />
            <mxPoint x="135" y="130" as="targetPoint" />
          </mxGeometry>
        </mxCell>
        <mxCell id="6IuLHE-G2bQOH5MbrsdE-3" value="" style="html=1;points=[[0,0,0,0,5],[0,1,0,0,-5],[1,0,0,0,5],[1,1,0,0,-5]];perimeter=orthogonalPerimeter;outlineConnect=0;targetShapes=umlLifeline;portConstraint=eastwest;newEdgeStyle={&quot;curved&quot;:0,&quot;rounded&quot;:0};" parent="1" vertex="1">
          <mxGeometry x="125" y="160" width="20" height="870" as="geometry" />
        </mxCell>
        <mxCell id="6IuLHE-G2bQOH5MbrsdE-4" value="" style="endArrow=none;dashed=1;html=1;rounded=0;" parent="1" source="6IuLHE-G2bQOH5MbrsdE-6" edge="1">
          <mxGeometry width="50" height="50" relative="1" as="geometry">
            <mxPoint x="560" y="600" as="sourcePoint" />
            <mxPoint x="560" y="130" as="targetPoint" />
          </mxGeometry>
        </mxCell>
        <mxCell id="6IuLHE-G2bQOH5MbrsdE-5" value="" style="endArrow=none;dashed=1;html=1;rounded=0;" parent="1" target="6IuLHE-G2bQOH5MbrsdE-6" edge="1">
          <mxGeometry width="50" height="50" relative="1" as="geometry">
            <mxPoint x="560" y="1081.1764705882354" as="sourcePoint" />
            <mxPoint x="560" y="130" as="targetPoint" />
          </mxGeometry>
        </mxCell>
        <mxCell id="6IuLHE-G2bQOH5MbrsdE-6" value="" style="html=1;points=[[0,0,0,0,5],[0,1,0,0,-5],[1,0,0,0,5],[1,1,0,0,-5]];perimeter=orthogonalPerimeter;outlineConnect=0;targetShapes=umlLifeline;portConstraint=eastwest;newEdgeStyle={&quot;curved&quot;:0,&quot;rounded&quot;:0};" parent="1" vertex="1">
          <mxGeometry x="550" y="430" width="20" height="90" as="geometry" />
        </mxCell>
        <mxCell id="6IuLHE-G2bQOH5MbrsdE-7" value="Зарегистрированный&lt;br&gt;пользователь" style="shape=umlActor;verticalLabelPosition=bottom;verticalAlign=top;html=1;outlineConnect=0;" parent="1" vertex="1">
          <mxGeometry x="120" y="30" width="30" height="60" as="geometry" />
        </mxCell>
        <mxCell id="6IuLHE-G2bQOH5MbrsdE-8" value="" style="endArrow=none;dashed=1;html=1;rounded=0;" parent="1" edge="1">
          <mxGeometry width="50" height="50" relative="1" as="geometry">
            <mxPoint x="350" y="160.0000000000001" as="sourcePoint" />
            <mxPoint x="350" y="130" as="targetPoint" />
          </mxGeometry>
        </mxCell>
        <mxCell id="6IuLHE-G2bQOH5MbrsdE-9" value="" style="endArrow=none;dashed=1;html=1;rounded=0;" parent="1" source="6IuLHE-G2bQOH5MbrsdE-27" edge="1">
          <mxGeometry width="50" height="50" relative="1" as="geometry">
            <mxPoint x="350" y="640" as="sourcePoint" />
            <mxPoint x="350" y="160" as="targetPoint" />
          </mxGeometry>
        </mxCell>
        <mxCell id="6IuLHE-G2bQOH5MbrsdE-10" value=": Устройство" style="rounded=0;whiteSpace=wrap;html=1;" parent="1" vertex="1">
          <mxGeometry x="290" y="70" width="120" height="60" as="geometry" />
        </mxCell>
        <mxCell id="6IuLHE-G2bQOH5MbrsdE-11" value=": Сервер" style="rounded=0;whiteSpace=wrap;html=1;" parent="1" vertex="1">
          <mxGeometry x="500" y="70" width="120" height="60" as="geometry" />
        </mxCell>
        <mxCell id="6IuLHE-G2bQOH5MbrsdE-13" value="" style="endArrow=classic;html=1;rounded=0;entryX=0;entryY=0.095;entryDx=0;entryDy=0;entryPerimeter=0;" parent="1" source="6IuLHE-G2bQOH5MbrsdE-3" edge="1">
          <mxGeometry width="50" height="50" relative="1" as="geometry">
            <mxPoint x="250" y="330" as="sourcePoint" />
            <mxPoint x="340" y="199.9000000000002" as="targetPoint" />
          </mxGeometry>
        </mxCell>
        <mxCell id="6IuLHE-G2bQOH5MbrsdE-14" value="Открыть сайт" style="edgeLabel;html=1;align=center;verticalAlign=middle;resizable=0;points=[];" parent="6IuLHE-G2bQOH5MbrsdE-13" vertex="1" connectable="0">
          <mxGeometry x="-0.019" y="1" relative="1" as="geometry">
            <mxPoint y="-9" as="offset" />
          </mxGeometry>
        </mxCell>
        <mxCell id="6IuLHE-G2bQOH5MbrsdE-15" value="Отобразить приветственную&lt;br&gt;&amp;nbsp;страницу сайта" style="html=1;verticalAlign=bottom;endArrow=classic;dashed=1;endSize=8;curved=0;rounded=0;exitX=0;exitY=1;exitDx=0;exitDy=-5;exitPerimeter=0;endFill=1;" parent="1" source="6IuLHE-G2bQOH5MbrsdE-27" target="6IuLHE-G2bQOH5MbrsdE-3" edge="1">
          <mxGeometry relative="1" as="geometry">
            <mxPoint x="330" y="240" as="sourcePoint" />
            <mxPoint x="240" y="240" as="targetPoint" />
          </mxGeometry>
        </mxCell>
        <mxCell id="6IuLHE-G2bQOH5MbrsdE-16" value="" style="endArrow=classic;html=1;rounded=0;" parent="1" edge="1">
          <mxGeometry width="50" height="50" relative="1" as="geometry">
            <mxPoint x="150" y="280" as="sourcePoint" />
            <mxPoint x="340" y="280.0000000000001" as="targetPoint" />
          </mxGeometry>
        </mxCell>
        <mxCell id="6IuLHE-G2bQOH5MbrsdE-17" value="Открыть страницу профиля" style="edgeLabel;html=1;align=center;verticalAlign=middle;resizable=0;points=[];" parent="6IuLHE-G2bQOH5MbrsdE-16" vertex="1" connectable="0">
          <mxGeometry x="-0.1729" y="-2" relative="1" as="geometry">
            <mxPoint x="14" y="-12" as="offset" />
          </mxGeometry>
        </mxCell>
        <mxCell id="6IuLHE-G2bQOH5MbrsdE-19" value="" style="endArrow=classic;html=1;rounded=0;" parent="1" edge="1">
          <mxGeometry width="50" height="50" relative="1" as="geometry">
            <mxPoint x="150" y="410" as="sourcePoint" />
            <mxPoint x="340" y="410" as="targetPoint" />
          </mxGeometry>
        </mxCell>
        <mxCell id="6IuLHE-G2bQOH5MbrsdE-20" value="Ввести новые данные" style="edgeLabel;html=1;align=center;verticalAlign=middle;resizable=0;points=[];" parent="6IuLHE-G2bQOH5MbrsdE-19" vertex="1" connectable="0">
          <mxGeometry x="-0.1729" y="-2" relative="1" as="geometry">
            <mxPoint x="14" y="-12" as="offset" />
          </mxGeometry>
        </mxCell>
        <mxCell id="6IuLHE-G2bQOH5MbrsdE-21" value="" style="endArrow=classic;html=1;rounded=0;" parent="1" target="6IuLHE-G2bQOH5MbrsdE-6" edge="1">
          <mxGeometry width="50" height="50" relative="1" as="geometry">
            <mxPoint x="360" y="440" as="sourcePoint" />
            <mxPoint x="550" y="440" as="targetPoint" />
          </mxGeometry>
        </mxCell>
        <mxCell id="6IuLHE-G2bQOH5MbrsdE-22" value="Передать данные" style="edgeLabel;html=1;align=center;verticalAlign=middle;resizable=0;points=[];" parent="6IuLHE-G2bQOH5MbrsdE-21" vertex="1" connectable="0">
          <mxGeometry x="-0.1729" y="-2" relative="1" as="geometry">
            <mxPoint x="14" y="-12" as="offset" />
          </mxGeometry>
        </mxCell>
        <mxCell id="6IuLHE-G2bQOH5MbrsdE-23" value="" style="html=1;points=[];perimeter=orthogonalPerimeter;rounded=0;shadow=0;comic=0;labelBackgroundColor=none;strokeWidth=1;fontFamily=Verdana;fontSize=12;align=center;" parent="1" vertex="1">
          <mxGeometry x="560" y="470" width="20" height="39" as="geometry" />
        </mxCell>
        <mxCell id="6IuLHE-G2bQOH5MbrsdE-24" value="&lt;font style=&quot;font-size: 11px;&quot;&gt;Проверить&lt;br&gt;переданные данные&lt;/font&gt;" style="html=1;verticalAlign=bottom;endArrow=block;labelBackgroundColor=none;fontFamily=Verdana;fontSize=12;elbow=vertical;edgeStyle=orthogonalEdgeStyle;curved=1;entryX=1;entryY=0.286;entryPerimeter=0;" parent="1" edge="1">
          <mxGeometry x="-0.189" y="20" relative="1" as="geometry">
            <mxPoint x="570" y="450.0000000000001" as="sourcePoint" />
            <mxPoint x="580.3333333333335" y="488.33333333333337" as="targetPoint" />
            <Array as="points">
              <mxPoint x="630" y="450" />
              <mxPoint x="630" y="488" />
            </Array>
            <mxPoint as="offset" />
          </mxGeometry>
        </mxCell>
        <mxCell id="6IuLHE-G2bQOH5MbrsdE-25" value="Вернуть результат&lt;br&gt;проверки данных" style="html=1;verticalAlign=bottom;endArrow=classic;dashed=1;endSize=8;curved=0;rounded=0;endFill=1;" parent="1" source="6IuLHE-G2bQOH5MbrsdE-6" edge="1">
          <mxGeometry relative="1" as="geometry">
            <mxPoint x="490" y="510" as="sourcePoint" />
            <mxPoint x="370" y="510" as="targetPoint" />
          </mxGeometry>
        </mxCell>
        <mxCell id="6IuLHE-G2bQOH5MbrsdE-26" value="" style="endArrow=none;dashed=1;html=1;rounded=0;" parent="1" source="6IuLHE-G2bQOH5MbrsdE-29" target="6IuLHE-G2bQOH5MbrsdE-27" edge="1">
          <mxGeometry width="50" height="50" relative="1" as="geometry">
            <mxPoint x="350" y="640" as="sourcePoint" />
            <mxPoint x="350" y="160" as="targetPoint" />
          </mxGeometry>
        </mxCell>
        <mxCell id="6IuLHE-G2bQOH5MbrsdE-27" value="" style="html=1;points=[[0,0,0,0,5],[0,1,0,0,-5],[1,0,0,0,5],[1,1,0,0,-5]];perimeter=orthogonalPerimeter;outlineConnect=0;targetShapes=umlLifeline;portConstraint=eastwest;newEdgeStyle={&quot;curved&quot;:0,&quot;rounded&quot;:0};" parent="1" vertex="1">
          <mxGeometry x="340" y="170" width="20" height="80" as="geometry" />
        </mxCell>
        <mxCell id="6IuLHE-G2bQOH5MbrsdE-28" value="" style="endArrow=none;dashed=1;html=1;rounded=0;" parent="1" target="6IuLHE-G2bQOH5MbrsdE-29" edge="1">
          <mxGeometry width="50" height="50" relative="1" as="geometry">
            <mxPoint x="350" y="980" as="sourcePoint" />
            <mxPoint x="350" y="250" as="targetPoint" />
          </mxGeometry>
        </mxCell>
        <mxCell id="6IuLHE-G2bQOH5MbrsdE-29" value="" style="html=1;points=[[0,0,0,0,5],[0,1,0,0,-5],[1,0,0,0,5],[1,1,0,0,-5]];perimeter=orthogonalPerimeter;outlineConnect=0;targetShapes=umlLifeline;portConstraint=eastwest;newEdgeStyle={&quot;curved&quot;:0,&quot;rounded&quot;:0};" parent="1" vertex="1">
          <mxGeometry x="340" y="270" width="20" height="350" as="geometry" />
        </mxCell>
        <mxCell id="6IuLHE-G2bQOH5MbrsdE-31" value="" style="html=1;points=[];perimeter=orthogonalPerimeter;rounded=0;shadow=0;comic=0;labelBackgroundColor=none;strokeWidth=1;fontFamily=Verdana;fontSize=12;align=center;" parent="1" vertex="1">
          <mxGeometry x="350" y="565" width="20" height="39" as="geometry" />
        </mxCell>
        <mxCell id="6IuLHE-G2bQOH5MbrsdE-32" value="&lt;font style=&quot;font-size: 11px;&quot;&gt;Открыть главную&lt;br style=&quot;border-color: var(--border-color); font-family: Helvetica;&quot;&gt;&lt;span style=&quot;font-family: Helvetica; background-color: rgb(255, 255, 255);&quot;&gt;&amp;nbsp;страницу&lt;/span&gt;&lt;/font&gt;" style="html=1;verticalAlign=bottom;endArrow=block;labelBackgroundColor=none;fontFamily=Verdana;fontSize=12;elbow=vertical;edgeStyle=orthogonalEdgeStyle;curved=1;entryX=1.2;entryY=0.769;entryPerimeter=0;entryDx=0;entryDy=0;" parent="1" source="6IuLHE-G2bQOH5MbrsdE-29" target="6IuLHE-G2bQOH5MbrsdE-31" edge="1">
          <mxGeometry x="0.3712" y="60" relative="1" as="geometry">
            <mxPoint x="360" y="530.0000000000001" as="sourcePoint" />
            <mxPoint x="370.3333333333335" y="568.3333333333334" as="targetPoint" />
            <Array as="points">
              <mxPoint x="420" y="550" />
              <mxPoint x="420" y="590" />
              <mxPoint x="374" y="590" />
            </Array>
            <mxPoint x="60" y="-60" as="offset" />
          </mxGeometry>
        </mxCell>
        <mxCell id="6IuLHE-G2bQOH5MbrsdE-33" value="Отобразить главную&lt;br&gt;&amp;nbsp;страницу сайта" style="html=1;verticalAlign=bottom;endArrow=classic;dashed=1;endSize=8;curved=0;rounded=0;exitX=0;exitY=1;exitDx=0;exitDy=-5;exitPerimeter=0;endFill=1;" parent="1" edge="1">
          <mxGeometry relative="1" as="geometry">
            <mxPoint x="340" y="600" as="sourcePoint" />
            <mxPoint x="145" y="600" as="targetPoint" />
          </mxGeometry>
        </mxCell>
        <mxCell id="6IuLHE-G2bQOH5MbrsdE-34" value="loop" style="shape=umlFrame;whiteSpace=wrap;html=1;pointerEvents=0;" parent="1" vertex="1">
          <mxGeometry x="270" y="420" width="450" height="120" as="geometry" />
        </mxCell>
        <mxCell id="6IuLHE-G2bQOH5MbrsdE-35" value="" style="endArrow=classic;html=1;rounded=0;" parent="1" edge="1">
          <mxGeometry width="50" height="50" relative="1" as="geometry">
            <mxPoint x="360" y="300" as="sourcePoint" />
            <mxPoint x="550" y="300.0000000000001" as="targetPoint" />
          </mxGeometry>
        </mxCell>
        <mxCell id="6IuLHE-G2bQOH5MbrsdE-36" value="Запросить данные&amp;nbsp;&lt;br&gt;пользователи" style="edgeLabel;html=1;align=center;verticalAlign=middle;resizable=0;points=[];" parent="6IuLHE-G2bQOH5MbrsdE-35" vertex="1" connectable="0">
          <mxGeometry x="-0.1729" y="-2" relative="1" as="geometry">
            <mxPoint x="14" y="-22" as="offset" />
          </mxGeometry>
        </mxCell>
        <mxCell id="6IuLHE-G2bQOH5MbrsdE-37" value="Вернуть данные&amp;nbsp;&lt;br&gt;пользователя" style="html=1;verticalAlign=bottom;endArrow=classic;dashed=1;endSize=8;curved=0;rounded=0;exitX=0;exitY=1;exitDx=0;exitDy=-5;exitPerimeter=0;endFill=1;" parent="1" edge="1">
          <mxGeometry relative="1" as="geometry">
            <mxPoint x="560" y="330" as="sourcePoint" />
            <mxPoint x="365" y="330" as="targetPoint" />
          </mxGeometry>
        </mxCell>
        <mxCell id="6IuLHE-G2bQOH5MbrsdE-38" value="Отобразить приветств&lt;br&gt;&amp;nbsp;страницу профиля" style="html=1;verticalAlign=bottom;endArrow=classic;dashed=1;endSize=8;curved=0;rounded=0;exitX=0;exitY=1;exitDx=0;exitDy=-5;exitPerimeter=0;endFill=1;" parent="1" edge="1">
          <mxGeometry relative="1" as="geometry">
            <mxPoint x="340" y="350" as="sourcePoint" />
            <mxPoint x="145" y="350" as="targetPoint" />
          </mxGeometry>
        </mxCell>
        <mxCell id="6IuLHE-G2bQOH5MbrsdE-39" value="" style="endArrow=none;html=1;rounded=0;" parent="1" edge="1">
          <mxGeometry width="50" height="50" relative="1" as="geometry">
            <mxPoint x="-10" y="260" as="sourcePoint" />
            <mxPoint x="754.7058823529412" y="260" as="targetPoint" />
          </mxGeometry>
        </mxCell>
        <mxCell id="6IuLHE-G2bQOH5MbrsdE-40" value="&lt;font style=&quot;font-size: 13px;&quot;&gt;&lt;b&gt;&lt;br&gt;Просмотр и редоктирование&lt;br&gt;профиля&lt;/b&gt;&lt;/font&gt;" style="edgeLabel;html=1;align=center;verticalAlign=middle;resizable=0;points=[];" parent="6IuLHE-G2bQOH5MbrsdE-39" vertex="1" connectable="0">
          <mxGeometry x="-0.9575" y="-2" relative="1" as="geometry">
            <mxPoint x="4" y="28" as="offset" />
          </mxGeometry>
        </mxCell>
        <mxCell id="6IuLHE-G2bQOH5MbrsdE-41" value="" style="endArrow=none;html=1;rounded=0;" parent="1" edge="1">
          <mxGeometry width="50" height="50" relative="1" as="geometry">
            <mxPoint x="-32.35" y="640" as="sourcePoint" />
            <mxPoint x="732.3558823529412" y="640" as="targetPoint" />
          </mxGeometry>
        </mxCell>
        <mxCell id="6IuLHE-G2bQOH5MbrsdE-42" value="&lt;font style=&quot;font-size: 13px;&quot;&gt;&lt;b&gt;Оформление подписки&lt;br&gt;&lt;/b&gt;&lt;/font&gt;" style="edgeLabel;html=1;align=center;verticalAlign=middle;resizable=0;points=[];" parent="6IuLHE-G2bQOH5MbrsdE-41" vertex="1" connectable="0">
          <mxGeometry x="-0.9575" y="-2" relative="1" as="geometry">
            <mxPoint x="4" y="18" as="offset" />
          </mxGeometry>
        </mxCell>
        <mxCell id="6IuLHE-G2bQOH5MbrsdE-52" value="" style="endArrow=classic;html=1;rounded=0;entryX=0;entryY=0.095;entryDx=0;entryDy=0;entryPerimeter=0;" parent="1" edge="1">
          <mxGeometry width="50" height="50" relative="1" as="geometry">
            <mxPoint x="145" y="690.1" as="sourcePoint" />
            <mxPoint x="340" y="690.0000000000002" as="targetPoint" />
          </mxGeometry>
        </mxCell>
        <mxCell id="6IuLHE-G2bQOH5MbrsdE-53" value="Открыть страницу&amp;nbsp;&lt;br&gt;оформления подписки" style="edgeLabel;html=1;align=center;verticalAlign=middle;resizable=0;points=[];" parent="6IuLHE-G2bQOH5MbrsdE-52" vertex="1" connectable="0">
          <mxGeometry x="-0.019" y="1" relative="1" as="geometry">
            <mxPoint y="-19" as="offset" />
          </mxGeometry>
        </mxCell>
        <mxCell id="6IuLHE-G2bQOH5MbrsdE-56" value="Отобразить&amp;nbsp;страницу&lt;br&gt;оформления подписки" style="html=1;verticalAlign=bottom;endArrow=classic;dashed=1;endSize=8;curved=0;rounded=0;exitX=0;exitY=1;exitDx=0;exitDy=-5;exitPerimeter=0;endFill=1;" parent="1" edge="1">
          <mxGeometry relative="1" as="geometry">
            <mxPoint x="340" y="740" as="sourcePoint" />
            <mxPoint x="145" y="740" as="targetPoint" />
          </mxGeometry>
        </mxCell>
        <mxCell id="6IuLHE-G2bQOH5MbrsdE-57" value="" style="endArrow=classic;html=1;rounded=0;entryX=0;entryY=0.095;entryDx=0;entryDy=0;entryPerimeter=0;" parent="1" edge="1">
          <mxGeometry width="50" height="50" relative="1" as="geometry">
            <mxPoint x="145" y="790.1" as="sourcePoint" />
            <mxPoint x="340" y="790.0000000000002" as="targetPoint" />
          </mxGeometry>
        </mxCell>
        <mxCell id="6IuLHE-G2bQOH5MbrsdE-58" value="Ввод данных для&lt;br&gt;офрмления подписки" style="edgeLabel;html=1;align=center;verticalAlign=middle;resizable=0;points=[];" parent="6IuLHE-G2bQOH5MbrsdE-57" vertex="1" connectable="0">
          <mxGeometry x="-0.019" y="1" relative="1" as="geometry">
            <mxPoint y="-19" as="offset" />
          </mxGeometry>
        </mxCell>
        <mxCell id="6IuLHE-G2bQOH5MbrsdE-59" value="" style="html=1;points=[[0,0,0,0,5],[0,1,0,0,-5],[1,0,0,0,5],[1,1,0,0,-5]];perimeter=orthogonalPerimeter;outlineConnect=0;targetShapes=umlLifeline;portConstraint=eastwest;newEdgeStyle={&quot;curved&quot;:0,&quot;rounded&quot;:0};" parent="1" vertex="1">
          <mxGeometry x="550" y="820" width="20" height="90" as="geometry" />
        </mxCell>
        <mxCell id="6IuLHE-G2bQOH5MbrsdE-60" value="" style="endArrow=classic;html=1;rounded=0;" parent="1" target="6IuLHE-G2bQOH5MbrsdE-59" edge="1">
          <mxGeometry width="50" height="50" relative="1" as="geometry">
            <mxPoint x="350" y="830" as="sourcePoint" />
            <mxPoint x="550" y="830" as="targetPoint" />
          </mxGeometry>
        </mxCell>
        <mxCell id="6IuLHE-G2bQOH5MbrsdE-61" value="Передать данные" style="edgeLabel;html=1;align=center;verticalAlign=middle;resizable=0;points=[];" parent="6IuLHE-G2bQOH5MbrsdE-60" vertex="1" connectable="0">
          <mxGeometry x="-0.1729" y="-2" relative="1" as="geometry">
            <mxPoint x="14" y="-12" as="offset" />
          </mxGeometry>
        </mxCell>
        <mxCell id="6IuLHE-G2bQOH5MbrsdE-62" value="" style="html=1;points=[];perimeter=orthogonalPerimeter;rounded=0;shadow=0;comic=0;labelBackgroundColor=none;strokeWidth=1;fontFamily=Verdana;fontSize=12;align=center;" parent="1" vertex="1">
          <mxGeometry x="560" y="860" width="20" height="39" as="geometry" />
        </mxCell>
        <mxCell id="6IuLHE-G2bQOH5MbrsdE-63" value="&lt;font style=&quot;font-size: 11px;&quot;&gt;Проверить&lt;br&gt;переданные данные&lt;/font&gt;" style="html=1;verticalAlign=bottom;endArrow=block;labelBackgroundColor=none;fontFamily=Verdana;fontSize=12;elbow=vertical;edgeStyle=orthogonalEdgeStyle;curved=1;entryX=1;entryY=0.286;entryPerimeter=0;" parent="1" edge="1">
          <mxGeometry x="-0.189" y="20" relative="1" as="geometry">
            <mxPoint x="570" y="840.0000000000001" as="sourcePoint" />
            <mxPoint x="580.3333333333335" y="878.3333333333334" as="targetPoint" />
            <Array as="points">
              <mxPoint x="630" y="840" />
              <mxPoint x="630" y="878" />
            </Array>
            <mxPoint as="offset" />
          </mxGeometry>
        </mxCell>
        <mxCell id="6IuLHE-G2bQOH5MbrsdE-64" value="Вернуть результат&lt;br&gt;проверки данных" style="html=1;verticalAlign=bottom;endArrow=classic;dashed=1;endSize=8;curved=0;rounded=0;endFill=1;" parent="1" source="6IuLHE-G2bQOH5MbrsdE-59" edge="1">
          <mxGeometry relative="1" as="geometry">
            <mxPoint x="490" y="900" as="sourcePoint" />
            <mxPoint x="370" y="900" as="targetPoint" />
          </mxGeometry>
        </mxCell>
        <mxCell id="6IuLHE-G2bQOH5MbrsdE-70" value="" style="endArrow=none;dashed=1;html=1;rounded=0;" parent="1" edge="1">
          <mxGeometry width="50" height="50" relative="1" as="geometry">
            <mxPoint x="350" y="1111.6666666666667" as="sourcePoint" />
            <mxPoint x="350" y="1019.0000000000002" as="targetPoint" />
          </mxGeometry>
        </mxCell>
        <mxCell id="6IuLHE-G2bQOH5MbrsdE-71" value="&lt;font style=&quot;font-size: 11px;&quot;&gt;Открыть главную&lt;br style=&quot;border-color: var(--border-color); font-family: Helvetica;&quot;&gt;&lt;span style=&quot;font-family: Helvetica; background-color: rgb(255, 255, 255);&quot;&gt;&amp;nbsp;страницу&lt;/span&gt;&lt;/font&gt;" style="html=1;verticalAlign=bottom;endArrow=block;labelBackgroundColor=none;fontFamily=Verdana;fontSize=12;elbow=vertical;edgeStyle=orthogonalEdgeStyle;curved=1;entryX=1.2;entryY=0.769;entryPerimeter=0;entryDx=0;entryDy=0;" parent="1" edge="1">
          <mxGeometry x="0.3712" y="60" relative="1" as="geometry">
            <mxPoint x="360" y="950" as="sourcePoint" />
            <mxPoint x="374" y="995" as="targetPoint" />
            <Array as="points">
              <mxPoint x="420" y="950" />
              <mxPoint x="420" y="990" />
              <mxPoint x="374" y="990" />
            </Array>
            <mxPoint x="60" y="-60" as="offset" />
          </mxGeometry>
        </mxCell>
        <mxCell id="6IuLHE-G2bQOH5MbrsdE-72" value="Отобразить главную&lt;br&gt;&amp;nbsp;страницу сайта" style="html=1;verticalAlign=bottom;endArrow=classic;dashed=1;endSize=8;curved=0;rounded=0;exitX=0;exitY=1;exitDx=0;exitDy=-5;exitPerimeter=0;endFill=1;" parent="1" edge="1">
          <mxGeometry relative="1" as="geometry">
            <mxPoint x="340" y="998.9100000000001" as="sourcePoint" />
            <mxPoint x="145" y="998.9100000000001" as="targetPoint" />
          </mxGeometry>
        </mxCell>
        <mxCell id="6IuLHE-G2bQOH5MbrsdE-76" value="" style="html=1;points=[[0,0,0,0,5],[0,1,0,0,-5],[1,0,0,0,5],[1,1,0,0,-5]];perimeter=orthogonalPerimeter;outlineConnect=0;targetShapes=umlLifeline;portConstraint=eastwest;newEdgeStyle={&quot;curved&quot;:0,&quot;rounded&quot;:0};" parent="1" vertex="1">
          <mxGeometry x="340" y="670" width="20" height="370" as="geometry" />
        </mxCell>
        <mxCell id="6IuLHE-G2bQOH5MbrsdE-77" value="" style="html=1;points=[];perimeter=orthogonalPerimeter;rounded=0;shadow=0;comic=0;labelBackgroundColor=none;strokeWidth=1;fontFamily=Verdana;fontSize=12;align=center;" parent="1" vertex="1">
          <mxGeometry x="350" y="970" width="20" height="39" as="geometry" />
        </mxCell>
        <mxCell id="6IuLHE-G2bQOH5MbrsdE-66" value="loop" style="shape=umlFrame;whiteSpace=wrap;html=1;pointerEvents=0;" parent="1" vertex="1">
          <mxGeometry x="270" y="805" width="450" height="120" as="geometry" />
        </mxCell>
      </root>
    </mxGraphModel>
  </diagram>
</mxfile>
